HIERARCHY
ROOT Hips
{
	OFFSET	0.00	0.00	0.00
	CHANNELS 6 Xposition Yposition Zposition Zrotation Xrotation Yrotation
	JOINT LeftUpLeg
	{
		OFFSET	 0.126116	-0.014019	-0.065224
		CHANNELS 3 Zrotation Xrotation Yrotation
		JOINT LeftLeg
		{
			OFFSET	 0.000000	 0.000000	 0.569914
			CHANNELS 3 Zrotation Xrotation Yrotation
			JOINT LeftFoot
			{
				OFFSET	 0.000000	 0.000000	 0.544423
				CHANNELS 3 Zrotation Xrotation Yrotation
				JOINT LeftToeBase
				{
					OFFSET	 0.000000	 0.000000	 0.207117
					CHANNELS 3 Zrotation Xrotation Yrotation
					End Site
					{
						OFFSET	 0.000000	 0.000000	 0.207117
					}
				}
			}
		}
	}
	JOINT RightUpLeg
	{
		OFFSET	-0.124023	-0.008373	-0.065224
		CHANNELS 3 Zrotation Xrotation Yrotation
		JOINT RightLeg
		{
			OFFSET	 0.000000	 0.000000	 0.570047
			CHANNELS 3 Zrotation Xrotation Yrotation
			JOINT RightFoot
			{
				OFFSET	 0.000000	 0.000000	 0.544354
				CHANNELS 3 Zrotation Xrotation Yrotation
				JOINT RightToeBase
				{
					OFFSET	 0.000000	 0.000000	 0.207540
					CHANNELS 3 Zrotation Xrotation Yrotation
					End Site
					{
						OFFSET	 0.000000	 0.000000	 0.207540
					}
				}
			}
		}
	}
	JOINT Spine
	{
		OFFSET	 0.000184	-0.007763	 0.117403
		CHANNELS 3 Zrotation Xrotation Yrotation
		JOINT Spine1
		{
			OFFSET	 0.000000	 0.000000	 0.137269
			CHANNELS 3 Zrotation Xrotation Yrotation
			JOINT Spine2
			{
				OFFSET	 0.000000	 0.000000	 0.156879
				CHANNELS 3 Zrotation Xrotation Yrotation
				JOINT LeftShoulder
				{
					OFFSET	 0.080501	-0.002496	 0.160144
					CHANNELS 3 Zrotation Xrotation Yrotation
					JOINT LeftArm
					{
						OFFSET	 0.000000	 0.000000	 0.164363
						CHANNELS 3 Zrotation Xrotation Yrotation
						JOINT LeftForeArm
						{
							OFFSET	 0.000000	 0.000000	 0.364576
							CHANNELS 3 Zrotation Xrotation Yrotation
							JOINT LeftHand
							{
								OFFSET	 0.000000	 0.000000	 0.360812
								CHANNELS 3 Zrotation Xrotation Yrotation
								JOINT LeftHandIndex1
								{
									OFFSET	 0.000000	 0.000000	 0.086006
									CHANNELS 3 Zrotation Xrotation Yrotation
									JOINT LeftHandIndex2
									{
										OFFSET	 0.000000	 0.000000	 0.047236
										CHANNELS 3 Zrotation Xrotation Yrotation
										JOINT LeftHandIndex3
										{
											OFFSET	-0.004284	-0.000551	 0.038166
											CHANNELS 3 Zrotation Xrotation Yrotation
											End Site
											{
												OFFSET	-0.004284	-0.000551	 0.038166
											}
										}
									}
								}
							}
						}
					}
				}
				JOINT Neck
				{
					OFFSET	 0.000000	 0.000000	 0.176489
					CHANNELS 3 Zrotation Xrotation Yrotation
					JOINT Head
					{
						OFFSET	 0.000000	-0.001747	 0.077940
						CHANNELS 3 Zrotation Xrotation Yrotation
						End Site
						{
							OFFSET	 0.000000	-0.001747	 0.077940
						}
					}
				}
				JOINT RightShoulder
				{
					OFFSET	-0.080363	 0.000306	 0.159706
					CHANNELS 3 Zrotation Xrotation Yrotation
					JOINT RightArm
					{
						OFFSET	 0.000000	 0.000000	 0.164196
						CHANNELS 3 Zrotation Xrotation Yrotation
						JOINT RightForeArm
						{
							OFFSET	 0.000000	 0.000000	 0.365611
							CHANNELS 3 Zrotation Xrotation Yrotation
							JOINT RightHand
							{
								OFFSET	 0.000000	 0.000000	 0.360648
								CHANNELS 3 Zrotation Xrotation Yrotation
								JOINT RightHandIndex1
								{
									OFFSET	 0.000000	 0.000000	 0.069977
									CHANNELS 3 Zrotation Xrotation Yrotation
									JOINT RightHandIndex2
									{
										OFFSET	 0.000000	 0.000000	 0.052305
										CHANNELS 3 Zrotation Xrotation Yrotation
										JOINT RightHandIndex3
										{
											OFFSET	 0.009002	-0.000782	 0.042196
											CHANNELS 3 Zrotation Xrotation Yrotation
											End Site
											{
												OFFSET	 0.009002	-0.000782	 0.042196
											}
										}
									}
								}
							}
						}
					}
				}
			}
		}
	}
}
MOTION
Frames:    5
Frame Time: 0.03333334
-0.056144	-2.225144	 1.157810	 3.838253	-1.927690	-3.624291	 31.672970	-15.978600	-176.458200	-0.026759	-51.249270	-0.324473	 114.014100	 81.962360	-117.888900	-2.371942	 31.183200	-0.060180	-32.600120	-34.850860	-173.931400	 13.386930	-63.462830	 12.744670	 6.437970	 75.445180	 1.001475	 2.357625	 33.196410	 0.107795	 6.801943	 8.988510	 1.055771	 1.508814	 3.264559	 2.863639	-7.810813	-2.717211	-3.701397	-93.715860	 58.797870	 175.882000	 9.878234	 27.036730	-41.777390	 15.498040	-2.097695	-7.393669	-13.167010	-3.649371	-6.499897	-4.868950	 19.273860	-2.792971	-3.891245	 21.348330	 2.212626	-4.805850	 5.573905	 0.145303	-0.140101	-4.997837	 0.151092	-9.943657	 1.832183	 2.344992	 89.852180	 61.525090	-179.833700	-18.114990	 46.581420	 14.605370	-16.821970	-2.150138	 7.441178	 8.962051	 8.512416	-1.238983	 6.307240	 26.195730	-0.575816	 1.703998	 46.126490	-6.830682	 0.307057	 25.229510	 3.680864
-0.058573	-2.284360	 1.157629	 4.903727	-1.440680	-3.587485	 29.851980	-13.446810	-178.153600	 0.954871	-50.122310	 0.462100	 129.494300	 82.380240	-133.458800	-2.369950	 31.523170	-0.067845	-36.576140	-38.370220	-178.403400	 12.519220	-57.384110	 11.241460	-6.479770	 78.078350	 14.790280	 2.358665	 33.044860	 0.104263	-0.127117	 8.760185	 0.959317	 1.291816	 3.380422	 2.805070	-7.983730	-2.942373	-3.665555	-93.914810	 58.982140	 175.436300	 8.022389	 23.750050	-42.289550	 17.185380	-2.927973	-8.633602	-12.878450	-3.599593	-8.289015	-4.869108	 19.247390	-2.786520	-3.884921	 21.429350	 2.206206	-4.808268	 5.545427	 0.146971	-0.082465	-5.067303	 0.180800	-9.900741	 1.784802	 2.110473	 89.786360	 61.640090	-179.989900	-18.338920	 48.549720	 12.270860	-20.134750	-2.999016	 8.682432	 9.270639	 9.056827	-1.659762	 6.295052	 24.993070	-0.544888	 1.869057	 44.833320	-6.978451	 0.514333	 24.328520	 3.574323
-0.061076	-2.340766	 1.153431	 5.843192	-0.682286	-3.635763	 28.321930	-11.438560	-179.477100	 1.461918	-49.344150	 0.841522	 145.289300	 82.271650	-149.098200	-2.368315	 31.793720	-0.073983	-40.532910	-41.072220	 176.741000	 11.952340	-50.189110	 9.829343	-24.322670	 79.459660	 32.569360	 2.359029	 32.991540	 0.103026	-6.809592	 8.268106	 0.830675	 1.138091	 3.549720	 2.913605	-8.163396	-3.207010	-3.709947	-94.136280	 59.019470	 174.958900	 6.093382	 20.676540	-42.574500	 19.516020	-3.848900	-9.749027	-12.370100	-3.758964	-9.371912	-4.863321	 19.403730	-2.798509	-3.873002	 21.581730	 2.194088	-4.803895	 5.596937	 0.143959	-0.033232	-5.109155	 0.239504	-9.897434	 1.750955	 1.941029	 89.704770	 61.739560	 179.815100	-18.267910	 50.151180	 10.143600	-23.558860	-3.933112	 9.795206	 9.276556	 9.539235	-2.140263	 6.274242	 23.405700	-0.553699	 2.058229	 43.265190	-7.146454	 0.831248	 22.922270	 3.416641
-0.064061	-2.400741	 1.146302	 6.391748	 0.123129	-3.944775	 27.197750	-8.999875	 179.319400	 1.750721	-48.251320	 1.043102	 162.215700	 81.393510	-165.748900	-2.365946	 32.176270	-0.082696	-42.979970	-43.274280	 172.427200	 11.696440	-43.150170	 8.589519	-35.613980	 79.106740	 42.968620	 2.360998	 32.698330	 0.096231	-13.192410	 7.621028	 0.948441	 0.994701	 3.840555	 2.992190	-8.305805	-3.464125	-3.760751	-94.340170	 58.958950	 174.533100	 4.262471	 18.098510	-42.826890	 21.440850	-4.840889	-10.755510	-12.492360	-4.487202	-9.323184	-4.848828	 19.748200	-2.816098	-3.854170	 21.821170	 2.174956	-4.792734	 5.728354	 0.136250	-0.007996	-5.172319	 0.304710	-9.939878	 1.711822	 1.879806	 89.578770	 61.894270	 179.510900	-17.924140	 51.858970	 6.357778	-27.066680	-7.023752	 13.613240	 9.053305	 9.963082	-3.159338	 6.242841	 21.507580	-0.611001	 2.232660	 41.731980	-7.299953	 1.242926	 21.044140	 3.221580
-0.068040	-2.460333	 1.136526	 6.600209	 0.599750	-4.290292	 26.304820	-5.960130	 177.937300	 1.886572	-46.801280	 1.118276	 176.491400	 80.484590	-179.619200	-2.359958	 33.090680	-0.103770	-43.265470	-46.528880	 169.152000	 11.386610	-39.424990	 7.782012	-63.454360	 82.050410	 69.633600	 2.354359	 33.661740	 0.118681	-19.074480	 7.063466	 1.180948	 0.873970	 4.471488	 2.940142	-8.369195	-3.760915	-3.748446	-94.462400	 58.881240	 174.285300	 2.510951	 16.340040	-43.241460	 23.122940	-5.828970	-11.606760	-13.062420	-4.924317	-8.896984	-4.829135	 20.150660	-2.822321	-3.828346	 22.147220	 2.148723	-4.773696	 5.951930	 0.123070	 0.018244	-5.262022	 0.338763	-9.943459	 1.649592	 1.807086	 89.464370	 62.013490	 179.232300	-17.045630	 52.928600	 4.396730	-30.929050	-7.738605	 13.748950	 8.915643	 10.046600	-4.636294	 6.203091	 19.405630	-0.694260	 2.487128	 39.332140	-7.521142	 1.696561	 18.908730	 3.020064
